<svg xmlns:sketch="http://www.bohemiancoding.com/sketch/ns" xmlns="http://www.w3.org/2000/svg" xmlns:xlink="http://www.w3.org/1999/xlink" version="1.1" id="Layer_1" x="0px" y="0px" width="69px" height="69px" viewBox="-445 246 69 69" style="enable-background:new -445 246 69 69;" xml:space="preserve">
<style type="text/css">
	.st0{fill:none;}
	.st1{fill:#C2C2C2;}
</style>
<title>Imported Layers Copy 2 + Imported Layers</title>
<desc>Created with Sketch.</desc>
<path class="st0" d="M-380.3,280.5c0-16.7-13.6-30.4-30.4-30.4s-30.4,13.6-30.4,30.4c0,9.1,4,17.3,10.4,22.8c0,0,0-0.1,0-0.1  c2.7-7.5,10.3-1.6,13.9-8.5c-2.4-2.2-4.4-5.4-5.6-9c-0.1,0.1-0.7-2.8-1.2-5.2c-0.2-1.5-0.2-7.9,0.1-9.7c0.2-1.2,0.4-2.2,0.7-3.1  c0.2-0.9,0.5-2,1.1-3.4c1.2-2.9,5.1-4.8,11.5-4.8c8.5,0,10.9,3.5,12.2,5.9c0.9,1.7,0.8,3.6,1.1,5.1c0.1,0.5,0.2,1,0.3,1.5  c0.2,1.5,0.2,5.6,0.1,6.6c-0.6,3.4-1.2,7.1-1.2,7.1c-1.2,3.6-3.2,6.9-5.7,9c3.5,6.6,10.8,1.3,13.6,7.8  C-383.9,297-380.3,289.2-380.3,280.5z"/>
<path class="st1" d="M-410.6,246.1c-18.9,0-34.4,15.4-34.4,34.4c0,11,5.2,20.8,13.3,27.1c2.8,2.2,5.9,3.9,9.3,5.2  c3.7,1.3,7.7,2.1,11.8,2.1c4.1,0,8.1-0.7,11.8-2.1c3.8-1.4,7.2-3.4,10.2-5.9c7.5-6.3,12.3-15.8,12.3-26.4  C-376.3,261.5-391.7,246.1-410.6,246.1z M-389.8,302.6c-2.8-6.5-10.1-1.2-13.6-7.8c2.5-2.2,4.5-5.4,5.7-9c0,0,0.7-3.6,1.2-7.1  c0.1-1.1,0.1-5.2-0.1-6.6c-0.1-0.5-0.2-1-0.3-1.5c-0.2-1.5-0.2-3.4-1.1-5.1c-1.3-2.4-3.7-5.9-12.2-5.9c-6.3,0-10.3,1.9-11.5,4.8  c-0.6,1.4-0.9,2.5-1.1,3.4c-0.3,0.9-0.5,1.9-0.7,3.1c-0.2,1.8-0.2,8.2-0.1,9.7c0.4,2.4,1.1,5.3,1.2,5.2c1.2,3.6,3.2,6.8,5.6,9  c-3.6,6.9-11.2,1-13.9,8.5c0,0,0,0.1,0,0.1c-6.4-5.6-10.4-13.7-10.4-22.8c0-16.7,13.6-30.4,30.4-30.4s30.4,13.6,30.4,30.4  C-380.3,289.2-383.9,297-389.8,302.6z"/>
</svg>