<svg xmlns="http://www.w3.org/2000/svg" xmlns:xlink="http://www.w3.org/1999/xlink" xmlns:sketch="http://www.bohemiancoding.com/sketch/ns" width="55px" height="30px" viewBox="0 0 55 30" version="1.1">
    <!-- Generator: Sketch 3.4.3 (16618) - http://www.bohemiancoding.com/sketch -->
    <title>noun_23694_cc</title>
    <desc>Created with Sketch.</desc>
    <defs/>
    <g id="Page-1" stroke="none" stroke-width="1" fill="none" fill-rule="evenodd" sketch:type="MSPage">
        <g id="login-logi" sketch:type="MSArtboardGroup" transform="translate(-1243.000000, -1131.000000)" fill="#C2C2C2">
            <g id="Group-Copy-11" sketch:type="MSLayerGroup" transform="translate(1216.000000, 866.000000)">
                <g id="Group-+-Rectangle-88-Copy-5-+-shape-copy-Copy" transform="translate(15.000000, 246.000000)" sketch:type="MSShapeGroup">
                    <g id="Group">
                        <g id="noun_23694_cc" transform="translate(12.000000, 19.000000)">
                            <path d="M8.69473118,0 L0,0 L0,1.75058824 L0,5.69529412 L0,29.9464706 L0.724462366,29.9464706 L0.724462366,5.69529412 L8.69473118,5.69529412 L8.69473118,0 Z" id="Shape"/>
                            <path d="M21.7995161,15.1005882 L21.7995161,9.01117647 L22.5919892,9.01117647 L22.5919892,7.51647059 L1.92322581,7.51647059 L1.92322581,9.01117647 L3.20241935,9.01117647 L3.20241935,29.9464706 L6.92467742,29.9464706 L7.99274194,29.9464706 L17.3315054,29.9464706 L18.0660215,29.9464706 L20.1087097,29.9464706 L21.7989247,29.9464706 L54.2784946,29.9464706 L54.2784946,16.5958824 L54.843871,16.5958824 L54.843871,15.1005882 L21.7995161,15.1005882 L21.7995161,15.1005882 Z M12.881828,11.0258824 L15.9316667,11.0258824 L15.9316667,13.7488235 L12.881828,13.7488235 L12.881828,11.0258824 L12.881828,11.0258824 Z M8.96795699,11.0258824 L12.0183871,11.0258824 L12.0183871,13.7488235 L8.96795699,13.7488235 L8.96795699,11.0258824 L8.96795699,11.0258824 Z M5.05467742,13.7488235 L5.05467742,11.0258824 L8.10451613,11.0258824 L8.10451613,13.7488235 L5.05467742,13.7488235 L5.05467742,13.7488235 Z M7.99333333,29.2882353 L7.99333333,20.1152941 L17.3320968,20.1152941 L17.3320968,29.2882353 L7.99333333,29.2882353 L7.99333333,29.2882353 Z M19.8455376,13.7488235 L16.7951075,13.7488235 L16.7951075,11.0258824 L19.8455376,11.0258824 L19.8455376,13.7488235 L19.8455376,13.7488235 Z M30.3097312,25.56 L22.5919892,25.56 L22.5919892,20.1152941 L30.3097312,20.1152941 L30.3097312,25.56 L30.3097312,25.56 Z M42.3387634,25.56 L32.3707527,25.56 L32.3707527,20.1152941 L42.338172,20.1152941 L42.338172,25.56 L42.3387634,25.56 Z M52.1003763,25.56 L44.382043,25.56 L44.382043,20.1152941 L52.1003763,20.1152941 L52.1003763,25.56 L52.1003763,25.56 Z" id="Shape"/>
                        </g>
                    </g>
                </g>
            </g>
        </g>
    </g>
</svg>